<?xml version="1.0" encoding="UTF-8" standalone="no"?><!-- Generator: Gravit.io --><svg xmlns="http://www.w3.org/2000/svg" xmlns:xlink="http://www.w3.org/1999/xlink" style="isolation:isolate" viewBox="0 0 1920 335" width="1920pt" height="335pt"><defs><clipPath id="_clipPath_z7qMJknfDNZQFGOzUWivDogmlGpeOzm4"><rect width="1920" height="335"/></clipPath></defs><g clip-path="url(#_clipPath_z7qMJknfDNZQFGOzUWivDogmlGpeOzm4)"><g><path d=" M 0 141 Q 138.6 183.5 179.764 209 Q 220.928 234.5 268.891 225 Q 330.448 212.75 368.592 218 Q 406.735 223.25 450.165 255 Q 464.894 271.75 474.335 273 C 483.777 274.25 487.931 268.25 513.611 290 Q 539.292 311.75 593.674 295 Q 660.142 268.5 821.778 259 C 983.415 249.5 1046.105 308 1131.456 290 C 1216.806 272 1266.656 243.5 1323.304 209 C 1379.953 174.5 1433.958 66.25 1555.94 54 Q 1677.923 41.75 1920 54 L 1920 335 L 0 335 L 0 141 Z " fill="rgb(0,0,0)" vector-effect="non-scaling-stroke" stroke-width="1" stroke="rgb(0,0,0)" stroke-linejoin="miter" stroke-linecap="square" stroke-miterlimit="3"/></g></g></svg>