<?xml version="1.0" encoding="UTF-8" standalone="no"?><!-- Generator: Gravit.io --><svg xmlns="http://www.w3.org/2000/svg" xmlns:xlink="http://www.w3.org/1999/xlink" style="isolation:isolate" viewBox="0 0 1920 335" width="1920pt" height="335pt"><defs><clipPath id="_clipPath_HY8iGpyPwJKv7iOCpg3cpr9s56jUnvcY"><rect width="1920" height="335"/></clipPath></defs><g clip-path="url(#_clipPath_HY8iGpyPwJKv7iOCpg3cpr9s56jUnvcY)"><g><path d=" M 0 179 L 87.357 149 Q 193.301 129.333 221.181 121 Q 249.061 112.667 323.408 111 L 358.722 129 L 399.613 116 L 440.503 125 L 607.783 66 L 656.108 74 L 760.194 33 Q 778.161 24.667 784.356 33 C 790.552 41.333 794.269 54 804.802 62 Q 815.334 70 841.975 81 L 860.561 81 L 929.332 116 L 968.364 103 L 1020.407 125 Q 1096.612 99.333 1139.361 74 Q 1182.11 48.667 1239.729 0 L 1289.913 20 L 1405.15 87 L 1431.171 87 L 1460.91 74 L 1485.073 116 Q 1509.235 129.333 1544.55 129 Q 1579.864 128.667 1713.688 59 Q 1745.905 38 1745.286 59 C 1744.666 80 1780.6 151.333 1841.936 169 Q 1903.272 186.667 1920 191 L 1920 335 L 0 335 L 0 179 Z " fill="rgb(50,50,50)" vector-effect="non-scaling-stroke"/></g></g></svg>