<?xml version="1.0" encoding="UTF-8" standalone="no"?><!-- Generator: Gravit.io --><svg xmlns="http://www.w3.org/2000/svg" xmlns:xlink="http://www.w3.org/1999/xlink" style="isolation:isolate" viewBox="0 0 1920 400" width="1920pt" height="400pt"><defs><clipPath id="_clipPath_473I86Mi9A4iIZxX9BjHU9k5ta3u9iyN"><rect width="1920" height="400"/></clipPath></defs><g clip-path="url(#_clipPath_473I86Mi9A4iIZxX9BjHU9k5ta3u9iyN)"><g><path d=" M 955.507 29 Q 970.185 72.867 998 103 C 1034 142 1087 222 1303 235 Q 1519 248 1925 274 L 1924 402 L -2 402 L -2 255 Q 478 281 586 235 C 694 189 789 146 823 103 C 840.21 81.235 855.69 56.587 869.407 29 L 955.507 29 L 955.507 29 Z " fill="rgb(28,28,28)"/><path d=" M 955.507 29 C 954.899 27.197 954.311 25.373 953.74 23.532 C 953.779 23.54 953.819 23.547 953.859 23.555 L 953.735 23.517 Q 950.513 13.129 948 2 Q 929 11 912 11 L 912 11 Q 895 11 882 2 Q 875.981 15.963 869.407 29 L 876 39 L 895.078 29 L 910 39 L 931.008 29 L 947 40 L 955.507 29 L 955.507 29 Z " fill="rgb(236,236,236)"/></g></g></svg>