<?xml version="1.0" encoding="UTF-8" standalone="no"?><!-- Generator: Gravit.io --><svg xmlns="http://www.w3.org/2000/svg" xmlns:xlink="http://www.w3.org/1999/xlink" style="isolation:isolate" viewBox="0 0 800 800" width="800pt" height="800pt"><defs><clipPath id="_clipPath_TDOVxuLsRYzFoWczR5cxeqSKeevrd6oj"><rect width="800" height="800"/></clipPath></defs><g clip-path="url(#_clipPath_TDOVxuLsRYzFoWczR5cxeqSKeevrd6oj)"><g style="isolation:isolate"><path d=" M 686 722.43 L 404.35 693.178 L 114 722.43 Q 231.591 651.823 289.08 596.187 Q 346.569 540.551 401.087 448.392 Q 479.687 554.267 522.882 596.187 Q 566.077 638.108 686 722.43 Z " fill="rgb(0,0,0)"/><path d=" M 655.551 594.11 L 403.887 570.541 L 144.449 594.11 Q 249.52 537.219 300.889 492.39 Q 352.258 447.562 400.972 373.304 Q 471.203 458.613 509.8 492.39 Q 548.396 526.168 655.551 594.11 Z " fill="rgb(0,0,0)"/><path d=" M 607.703 494.065 L 403.159 476.848 L 192.297 494.065 Q 277.695 452.508 319.446 419.762 Q 361.197 387.017 400.79 332.774 Q 457.871 395.089 489.241 419.762 Q 520.611 444.435 607.703 494.065 Z " fill="rgb(0,0,0)"/><path d=" M 550.068 423.38 L 402.282 409.93 L 249.932 423.38 Q 311.633 390.915 341.799 365.332 Q 371.964 339.75 400.571 297.374 Q 441.813 346.057 464.478 365.332 Q 487.143 384.608 550.068 423.38 Z " fill="rgb(0,0,0)"/><path d=" M 515.27 365.745 L 401.753 350.372 L 284.73 365.745 Q 332.124 328.636 355.295 299.396 Q 378.465 270.155 400.438 221.718 Q 432.117 277.363 449.527 299.396 Q 466.936 321.428 515.27 365.745 Z " fill="rgb(0,0,0)"/><path d=" M 515.27 297.374 L 401.753 282.803 L 284.73 297.374 Q 332.124 262.203 355.295 234.489 Q 378.465 206.776 400.438 160.868 Q 432.117 213.608 449.527 234.489 Q 466.936 255.371 515.27 297.374 Z " fill="rgb(0,0,0)"/><path d=" M 491.346 229.121 L 401.389 213.018 L 308.654 229.121 Q 346.211 190.252 364.573 159.625 Q 382.935 128.997 400.347 78.263 Q 425.451 136.548 439.248 159.625 Q 453.044 182.702 491.346 229.121 Z " fill="rgb(0,0,0)"/><path d=" M 461.581 137.38 L 400.937 123.103 L 338.419 137.38 Q 363.738 102.918 376.117 75.762 Q 388.495 48.606 400.234 3.624 Q 417.158 55.301 426.459 75.762 Q 435.759 96.223 461.581 137.38 Z " fill="rgb(0,0,0)"/><rect x="369.551" y="674.582" width="64.16" height="121.795" transform="matrix(1,0,0,1,0,0)" fill="rgb(0,0,0)"/></g></g></svg>