<?xml version="1.0" encoding="UTF-8" standalone="no"?><!-- Generator: Gravit.io --><svg xmlns="http://www.w3.org/2000/svg" xmlns:xlink="http://www.w3.org/1999/xlink" style="isolation:isolate" viewBox="0 0 800 800" width="800pt" height="800pt"><defs><clipPath id="_clipPath_PYCzbUiTfuYK6jfiEBFKb0uUU36CH4Jy"><rect width="800" height="800"/></clipPath></defs><g clip-path="url(#_clipPath_PYCzbUiTfuYK6jfiEBFKb0uUU36CH4Jy)"><g style="isolation:isolate"><path d=" M 561 725.077 L 402.449 696.872 L 239 725.077 Q 305.196 656.998 337.559 603.353 Q 369.922 549.709 400.612 460.848 Q 444.859 562.934 469.175 603.353 Q 493.491 643.773 561 725.077 Z " fill="rgb(0,0,0)"/><path d=" M 581 601.35 L 402.753 578.625 L 219 601.35 Q 293.419 546.496 329.802 503.272 Q 366.185 460.047 400.688 388.447 Q 450.431 470.703 477.768 503.272 Q 505.105 535.84 581 601.35 Z " fill="rgb(0,0,0)"/><path d=" M 581 517 L 402.753 497.814 L 219 517 Q 293.419 470.688 329.802 434.196 Q 366.185 397.704 400.688 337.255 Q 450.431 406.7 477.768 434.196 Q 505.105 461.692 581 517 Z " fill="rgb(0,0,0)"/><path d=" M 550.068 436.732 L 402.282 423.763 L 249.932 436.732 Q 311.633 405.428 341.799 380.762 Q 371.964 356.095 400.571 315.236 Q 441.813 362.176 464.478 380.762 Q 487.143 399.347 550.068 436.732 Z " fill="rgb(0,0,0)"/><path d=" M 515.27 375.984 L 401.753 362.265 L 284.73 375.984 Q 332.124 342.87 355.295 316.778 Q 378.465 290.685 400.438 247.464 Q 432.117 297.118 449.527 316.778 Q 466.936 336.438 515.27 375.984 Z " fill="rgb(0,0,0)"/><path d=" M 505 315.236 L 401.597 301.187 L 295 315.236 Q 338.171 281.324 359.278 254.602 Q 380.384 227.88 400.399 183.616 Q 429.256 234.468 445.114 254.602 Q 460.972 274.736 505 315.236 Z " fill="rgb(0,0,0)"/><path d=" M 481 249.426 L 401.232 235.291 L 319 249.426 Q 352.304 215.306 368.586 188.421 Q 384.867 161.535 400.308 117 Q 422.569 168.163 434.802 188.421 Q 447.036 208.678 481 249.426 Z " fill="rgb(0,0,0)"/><path d=" M 440 166.969 L 400.608 154.91 L 360 166.969 Q 376.446 137.862 384.487 114.927 Q 392.527 91.992 400.152 54 Q 411.145 97.646 417.186 114.927 Q 423.228 132.208 440 166.969 Z " fill="rgb(0,0,0)"/><rect x="369.551" y="678.941" width="64.16" height="117.435" transform="matrix(1,0,0,1,0,0)" fill="rgb(0,0,0)"/></g></g></svg>