<?xml version="1.0" encoding="UTF-8" standalone="no"?><!-- Generator: Gravit.io --><svg xmlns="http://www.w3.org/2000/svg" xmlns:xlink="http://www.w3.org/1999/xlink" style="isolation:isolate" viewBox="0 0 800 800" width="800pt" height="800pt"><defs><clipPath id="_clipPath_kZOvOfPy1xuo32ugwaDAwXOtl8gexdg8"><rect width="800" height="800"/></clipPath></defs><g clip-path="url(#_clipPath_kZOvOfPy1xuo32ugwaDAwXOtl8gexdg8)"><g style="isolation:isolate"><path d=" M 649 735.479 L 403.787 704.835 L 151 735.479 Q 253.378 661.511 303.43 603.225 Q 353.482 544.94 400.947 448.392 Q 469.378 559.309 506.985 603.225 Q 544.592 647.142 649 735.479 Z " fill="rgb(0,0,0)"/><path d=" M 676 615 L 404.198 586.971 L 124 615 Q 237.479 547.344 292.958 494.033 Q 348.437 440.722 401.049 352.414 Q 476.901 453.865 518.586 494.033 Q 560.27 534.202 676 615 Z " fill="rgb(0,0,0)"/><path d=" M 611 501 L 403.209 482.303 L 189 501 Q 275.754 455.87 318.167 420.308 Q 360.581 384.746 400.802 325.839 Q 458.79 393.513 490.658 420.308 Q 522.526 447.103 611 501 Z " fill="rgb(0,0,0)"/><path d=" M 567 423.38 L 402.54 409.93 L 233 423.38 Q 301.663 390.915 335.232 365.332 Q 368.801 339.75 400.635 297.374 Q 446.53 346.057 471.753 365.332 Q 496.975 384.608 567 423.38 Z " fill="rgb(0,0,0)"/><path d=" M 533 352.414 L 402.023 339.886 L 267 352.414 Q 321.684 322.175 348.418 298.347 Q 375.153 274.519 400.506 235.049 Q 437.057 280.393 457.144 298.347 Q 477.232 316.301 533 352.414 Z " fill="rgb(0,0,0)"/><path d=" M 491.346 283.208 L 401.389 271.662 L 308.654 283.208 Q 346.211 255.337 364.573 233.375 Q 382.935 211.413 400.347 175.034 Q 425.451 216.828 439.248 233.375 Q 453.044 249.923 491.346 283.208 Z " fill="rgb(0,0,0)"/><path d=" M 491.346 229.121 L 401.389 217.046 L 308.654 229.121 Q 346.211 199.975 364.573 177.009 Q 382.935 154.043 400.347 116 Q 425.451 159.705 439.248 177.009 Q 453.044 194.314 491.346 229.121 Z " fill="rgb(0,0,0)"/><path d=" M 461.581 158.38 L 400.937 146.918 L 338.419 158.38 Q 363.738 130.714 376.117 108.913 Q 388.495 87.112 400.234 51 Q 417.158 92.487 426.459 108.913 Q 435.759 125.339 461.581 158.38 Z " fill="rgb(0,0,0)"/><rect x="369.551" y="674.582" width="64.16" height="121.795" transform="matrix(1,0,0,1,0,0)" fill="rgb(0,0,0)"/></g></g></svg>