<?xml version="1.0" encoding="UTF-8" standalone="no"?><!-- Generator: Gravit.io --><svg xmlns="http://www.w3.org/2000/svg" xmlns:xlink="http://www.w3.org/1999/xlink" style="isolation:isolate" viewBox="0 0 800 800" width="800pt" height="800pt"><defs><clipPath id="_clipPath_f6DaH0iYKZQsj96o0nQZ7IjDYkt7nj7r"><rect width="800" height="800"/></clipPath></defs><g clip-path="url(#_clipPath_f6DaH0iYKZQsj96o0nQZ7IjDYkt7nj7r)"><g style="isolation:isolate"><path d=" M 739 722.43 L 405.156 693.178 L 61 722.43 Q 200.382 651.823 268.525 596.187 Q 336.668 540.551 401.289 448.392 Q 494.454 554.267 545.654 596.187 Q 596.854 638.108 739 722.43 Z " fill="rgb(0,0,0)"/><path d=" M 696.345 607 L 404.507 582.055 L 103.655 607 Q 225.499 546.788 285.068 499.342 Q 344.636 451.896 401.127 373.304 Q 482.569 463.593 527.327 499.342 Q 572.085 535.091 696.345 607 Z " fill="rgb(0,0,0)"/><path d=" M 625.649 508 L 403.432 489.296 L 174.351 508 Q 267.128 462.853 312.486 427.278 Q 357.844 391.703 400.858 332.774 Q 462.871 400.473 496.952 427.278 Q 531.032 454.083 625.649 508 Z " fill="rgb(0,0,0)"/><path d=" M 562 423.38 L 402.464 409.93 L 238 423.38 Q 304.607 390.915 337.171 365.332 Q 369.735 339.75 400.616 297.374 Q 445.137 346.057 469.605 365.332 Q 494.072 384.608 562 423.38 Z " fill="rgb(0,0,0)"/><path d=" M 528 365.745 L 401.947 350.372 L 272 365.745 Q 324.628 328.636 350.357 299.396 Q 376.087 270.155 400.487 221.718 Q 435.664 277.363 454.996 299.396 Q 474.328 321.428 528 365.745 Z " fill="rgb(0,0,0)"/><path d=" M 487 297.374 L 401.323 282.803 L 313 297.374 Q 348.771 262.203 366.259 234.489 Q 383.747 206.776 400.331 160.868 Q 424.24 213.608 437.38 234.489 Q 450.52 255.371 487 297.374 Z " fill="rgb(0,0,0)"/><path d=" M 461.581 229.121 L 400.937 213.018 L 338.419 229.121 Q 363.738 190.252 376.117 159.625 Q 388.495 128.997 400.234 78.263 Q 417.158 136.548 426.459 159.625 Q 435.759 182.702 461.581 229.121 Z " fill="rgb(0,0,0)"/><path d=" M 433.711 137.38 L 400.513 123.103 L 366.289 137.38 Q 380.149 102.918 386.926 75.762 Q 393.702 48.606 400.128 3.624 Q 409.393 55.301 414.484 75.762 Q 419.576 96.223 433.711 137.38 Z " fill="rgb(0,0,0)"/><rect x="369.551" y="674.582" width="64.16" height="121.795" transform="matrix(1,0,0,1,0,0)" fill="rgb(0,0,0)"/></g></g></svg>