<?xml version="1.0" encoding="UTF-8" standalone="no"?><!-- Generator: Gravit.io --><svg xmlns="http://www.w3.org/2000/svg" xmlns:xlink="http://www.w3.org/1999/xlink" style="isolation:isolate" viewBox="0 0 800 800" width="800pt" height="800pt"><defs><clipPath id="_clipPath_4JOokQEZOT57JQ1h1XwWTlWnQgu8gFUj"><rect width="800" height="800"/></clipPath></defs><g clip-path="url(#_clipPath_4JOokQEZOT57JQ1h1XwWTlWnQgu8gFUj)"><g style="isolation:isolate"><path d=" M 649 725.077 L 403.787 696.872 L 151 725.077 Q 253.378 656.998 303.43 603.353 Q 353.482 549.709 400.947 460.848 Q 469.378 562.934 506.985 603.353 Q 544.592 643.773 649 725.077 Z " fill="rgb(0,0,0)"/><path d=" M 557 601.35 L 402.388 578.625 L 243 601.35 Q 307.551 546.496 339.11 503.272 Q 370.669 460.047 400.597 388.447 Q 443.744 470.703 467.456 503.272 Q 491.168 535.84 557 601.35 Z " fill="rgb(0,0,0)"/><path d=" M 581 517 L 402.753 497.814 L 219 517 Q 293.419 470.688 329.802 434.196 Q 366.185 397.704 400.688 337.255 Q 450.431 406.7 477.768 434.196 Q 505.105 461.692 581 517 Z " fill="rgb(0,0,0)"/><path d=" M 550.068 436.732 L 402.282 421.069 L 249.932 436.732 Q 311.633 398.926 341.799 369.136 Q 371.964 339.346 400.571 290 Q 441.813 346.69 464.478 369.136 Q 487.143 391.582 550.068 436.732 Z " fill="rgb(0,0,0)"/><path d=" M 515.27 363.366 L 401.753 349.647 L 284.73 363.366 Q 332.124 330.252 355.295 304.16 Q 378.465 278.067 400.438 234.846 Q 432.117 284.5 449.527 304.16 Q 466.936 323.82 515.27 363.366 Z " fill="rgb(0,0,0)"/><path d=" M 505 299.106 L 401.597 285.056 L 295 299.106 Q 338.171 265.194 359.278 238.472 Q 380.384 211.75 400.399 167.486 Q 429.256 218.338 445.114 238.472 Q 460.972 258.606 505 299.106 Z " fill="rgb(0,0,0)"/><path d=" M 481 233.699 L 401.232 219.564 L 319 233.699 Q 352.304 199.579 368.586 172.694 Q 384.867 145.808 400.308 101.273 Q 422.569 152.436 434.802 172.694 Q 447.036 192.951 481 233.699 Z " fill="rgb(0,0,0)"/><path d=" M 447 145 L 402.321 132.942 L 356.262 145 Q 374.916 115.893 384.036 92.958 Q 393.155 70.023 401.804 32.031 Q 414.272 75.677 421.124 92.958 Q 427.976 110.239 447 145 Z " fill="rgb(0,0,0)"/><rect x="369.551" y="678.941" width="64.16" height="117.435" transform="matrix(1,0,0,1,0,0)" fill="rgb(0,0,0)"/></g></g></svg>